<?xml version="1.0" standalone="no"?>
<!DOCTYPE svg PUBLIC "-//W3C//DTD SVG 20010904//EN"
 "http://www.w3.org/TR/2001/REC-SVG-20010904/DTD/svg10.dtd">
<svg version="1.0" xmlns="http://www.w3.org/2000/svg"
 width="512.000000pt" height="512.000000pt" viewBox="0 0 512.000000 512.000000"
 preserveAspectRatio="xMidYMid meet">

<g transform="translate(0.000000,512.000000) scale(0.100000,-0.100000)"
fill="#000000" stroke="none">
<path d="M2334 4600 c-355 -64 -638 -375 -661 -725 -13 -196 65 -408 197 -542
l41 -41 -76 -7 c-43 -4 -115 -5 -161 -1 -93 8 -116 1 -138 -42 -21 -41 0 -86
50 -102 46 -16 342 -7 449 13 62 11 76 11 128 -5 104 -32 144 -23 176 41 19
36 27 41 118 71 54 18 133 48 176 66 55 24 79 30 82 21 74 -230 106 -314 158
-422 35 -71 70 -146 79 -165 28 -65 108 -168 156 -203 59 -44 156 -77 222 -77
l52 0 -7 -32 c-15 -70 -68 -216 -100 -273 -43 -77 -103 -146 -160 -182 -24
-15 -49 -39 -54 -53 -5 -14 -15 -97 -21 -184 -10 -151 -10 -161 8 -185 34 -47
104 -40 127 12 8 18 17 85 21 157 l6 125 50 38 c113 87 208 260 267 486 l27
104 52 19 c89 33 210 164 246 266 8 20 34 78 59 127 83 165 144 337 187 526
l22 96 81 6 c49 3 106 14 142 27 103 40 192 149 226 281 17 63 -1 90 -76 118
-110 41 -258 46 -349 11 -39 -14 -53 -13 -59 8 -2 9 -8 24 -12 34 -8 20 51 57
141 89 84 29 207 24 284 -12 73 -34 136 -99 174 -179 75 -159 17 -335 -144
-437 -44 -28 -66 -50 -81 -81 -20 -40 -21 -49 -10 -115 12 -77 32 -113 74
-137 24 -13 34 -13 94 3 243 64 431 254 500 507 24 89 24 281 0 369 -60 213
-225 409 -432 511 -126 62 -188 74 -355 74 -124 -1 -159 -5 -245 -27 -182 -49
-371 -158 -477 -276 l-46 -51 -147 0 -147 0 -46 51 c-106 119 -297 228 -477
275 -111 28 -301 40 -391 24z m351 -169 c99 -26 261 -105 336 -165 64 -52 136
-140 148 -182 18 -68 -34 -134 -104 -134 -43 1 -64 16 -141 99 -136 147 -292
221 -468 221 -116 0 -199 -24 -285 -81 -229 -153 -295 -454 -151 -680 36 -55
123 -140 168 -163 21 -11 29 -21 26 -31 -9 -21 -23 -19 -93 16 -214 107 -339
375 -287 618 26 121 77 213 176 311 96 97 205 159 320 185 85 19 249 13 355
-14z m1770 14 c39 -8 108 -33 155 -57 115 -56 240 -179 293 -288 87 -175 87
-354 0 -530 -46 -96 -142 -193 -232 -238 -72 -36 -86 -38 -94 -18 -4 10 9 23
37 40 58 34 148 133 180 198 55 114 67 214 41 327 -42 176 -177 321 -347 372
-95 29 -252 23 -349 -13 -94 -35 -199 -108 -276 -193 -68 -75 -96 -95 -138
-95 -86 0 -136 95 -89 168 154 239 528 388 819 327z m-1870 -345 c88 -30 148
-68 140 -88 -4 -10 -10 -25 -12 -34 -6 -20 -20 -22 -58 -8 -93 35 -238 31
-350 -11 -75 -28 -93 -55 -77 -116 36 -134 125 -244 229 -283 34 -13 92 -24
141 -27 45 -3 82 -9 82 -13 0 -8 -211 -97 -284 -120 -32 -10 -40 -10 -47 1
-18 30 -26 37 -85 77 -114 77 -168 170 -168 292 0 145 85 270 222 326 75 31
184 32 267 4z m875 -38 c0 -95 66 -197 154 -238 94 -44 217 -26 291 42 21 19
40 33 42 31 9 -10 33 -148 33 -198 0 -124 -177 -719 -210 -707 -5 2 -46 50
-92 107 -118 148 -113 145 -271 149 -169 4 -175 1 -290 -143 -48 -60 -92 -111
-96 -113 -12 -4 -75 142 -114 266 -86 269 -111 460 -78 590 7 28 14 52 16 52
1 0 19 -16 40 -35 99 -90 265 -86 363 8 47 45 73 101 79 169 l6 58 63 0 64 0
0 -38z m-832 -245 c30 -16 32 -21 32 -71 0 -52 -1 -54 -30 -60 -78 -15 -179
35 -216 107 -13 25 -14 31 -2 39 22 15 179 4 216 -15z m1752 13 c12 -7 12 -12
0 -35 -40 -75 -157 -131 -223 -106 -24 9 -27 16 -27 60 0 53 8 63 69 82 37 11
163 10 181 -1z m-1016 -1041 c88 -3 111 5 212 77 l61 44 32 -45 32 -45 -32
-47 c-80 -119 -108 -133 -269 -133 -168 0 -197 14 -272 123 l-39 58 32 43 33
43 89 -59 c58 -37 100 -58 121 -59z"/>
<path d="M2962 3657 c-31 -33 -30 -96 1 -125 54 -50 127 -14 127 63 0 76 -79
114 -128 62z"/>
<path d="M3722 3657 c-31 -33 -30 -96 1 -125 53 -50 127 -12 127 64 0 75 -80
112 -128 61z"/>
<path d="M905 3324 c-247 -29 -412 -91 -560 -211 -126 -102 -263 -311 -317
-483 -32 -103 -32 -276 0 -367 32 -90 85 -176 159 -254 l66 -69 -6 -51 c-6
-47 -42 -129 -58 -129 -4 0 -17 -20 -29 -45 -25 -52 -28 -14 46 -660 53 -467
50 -449 81 -486 47 -56 63 -59 290 -59 235 0 261 6 295 70 28 55 23 89 -33
196 l-52 97 -4 221 -5 221 61 34 c92 52 213 153 281 235 l61 74 52 -14 c235
-64 561 -57 1022 21 110 19 200 33 201 32 1 -1 45 -245 99 -542 58 -328 103
-551 113 -569 9 -16 30 -38 45 -50 27 -20 40 -21 254 -21 l225 0 33 37 c59 64
57 90 -19 244 l-66 135 12 181 12 181 -28 23 c-34 30 -76 31 -104 2 -18 -20
-22 -43 -31 -163 -20 -254 -19 -260 44 -381 30 -59 55 -108 55 -110 0 -2 -67
-4 -150 -4 -147 0 -150 0 -155 23 -2 12 -68 378 -146 812 -78 435 -146 801
-153 815 -22 49 -101 52 -132 5 -15 -23 -14 -38 22 -240 20 -118 34 -218 31
-221 -7 -8 -295 -57 -462 -80 -182 -24 -478 -25 -602 0 -51 10 -93 19 -93 20
0 2 9 28 19 58 24 70 41 178 41 261 0 82 -26 232 -48 277 -30 62 -108 67 -138
9 -14 -29 -14 -36 3 -98 13 -48 18 -101 18 -191 0 -145 -19 -222 -82 -330 -54
-93 -190 -223 -304 -292 -52 -31 -104 -64 -117 -73 l-23 -17 3 -286 3 -287 42
-75 c24 -41 43 -78 43 -83 0 -4 -71 -6 -157 -5 l-158 3 -42 360 c-23 198 -47
420 -54 492 -12 130 -12 133 9 155 32 35 70 126 81 198 19 118 18 125 -50 196
-55 57 -60 65 -48 81 8 10 59 72 114 138 126 151 187 249 230 367 45 129 58
212 54 355 l-4 121 35 11 c92 26 176 34 360 33 185 0 196 1 218 21 27 25 29
67 4 97 -13 16 -35 25 -73 31 -53 7 -276 9 -334 3z m-358 -376 c-11 -229 -75
-366 -280 -601 l-77 -88 -11 27 c-22 59 -31 131 -25 196 17 183 159 422 322
542 76 55 78 54 71 -76z"/>
</g>
</svg>
