<?xml version="1.0" standalone="no"?>
<!DOCTYPE svg PUBLIC "-//W3C//DTD SVG 20010904//EN"
 "http://www.w3.org/TR/2001/REC-SVG-20010904/DTD/svg10.dtd">
<svg version="1.0" xmlns="http://www.w3.org/2000/svg"
 width="1310.000000pt" height="1637.000000pt" viewBox="0 0 1310.000000 1637.000000"
 preserveAspectRatio="xMidYMid meet">

<g transform="translate(0.000000,1637.000000) scale(0.100000,-0.100000)"
fill="#000000" stroke="none">
<path d="M2699 12703 l0 -1208 -47 -30 c-58 -37 -96 -107 -119 -220 -21 -104
-7 -223 40 -341 l33 -81 -33 -38 c-43 -50 -78 -123 -99 -205 -19 -74 -15 -271
5 -327 23 -61 62 -53 93 19 29 68 95 123 176 148 127 39 213 20 292 -66 64
-70 85 -124 84 -219 -1 -100 -33 -199 -143 -439 -224 -486 -262 -570 -304
-676 -144 -365 -206 -638 -214 -948 -11 -408 69 -953 197 -1333 l19 -56 -45
-48 c-120 -129 -150 -317 -67 -415 14 -17 32 -30 41 -30 10 0 32 23 51 51 42
61 110 123 171 154 l45 23 60 -31 c75 -40 180 -139 222 -209 18 -29 45 -89 60
-133 l28 -80 -3 -480 c-4 -664 15 -947 82 -1213 82 -322 248 -577 541 -829
163 -141 277 -221 425 -297 357 -184 742 -282 1075 -274 l119 2 7 -33 c9 -45
50 -84 149 -143 166 -99 377 -176 585 -214 79 -15 147 -19 330 -18 210 0 241
2 356 27 217 46 425 128 586 232 54 35 77 56 92 89 12 23 21 47 21 52 0 5 73
9 173 10 177 1 295 15 452 55 310 79 616 218 820 372 411 310 618 594 715 981
66 264 83 510 78 1156 -3 550 -4 544 63 688 31 67 54 99 111 156 41 40 99 85
133 103 l60 31 46 -23 c59 -30 146 -111 179 -164 14 -22 32 -41 41 -41 32 0
81 74 93 141 14 81 -38 217 -117 304 l-44 49 22 67 c128 374 218 1024 194
1393 -25 392 -131 725 -443 1388 -228 488 -258 603 -190 745 28 58 82 111 146
144 36 18 53 21 113 16 38 -3 91 -14 117 -26 66 -28 135 -94 150 -143 23 -76
70 -73 92 6 49 172 8 393 -93 508 -17 20 -31 40 -31 46 0 5 11 34 24 65 30 66
56 187 56 257 0 133 -56 266 -132 315 l-47 30 0 1208 -1 1207 -3845 0 -3845 0
-1 -1207z m7613 -175 c3 -1295 3 -1303 23 -1303 18 0 22 12 35 93 l15 94 27
-21 c37 -30 53 -81 38 -126 -17 -50 -58 -84 -154 -126 -385 -166 -683 -576
-778 -1073 -21 -110 -22 -127 -28 -1961 -7 -2009 -3 -1876 -61 -2165 -80 -397
-273 -822 -523 -1153 -473 -626 -1202 -1057 -1956 -1157 -54 -7 -103 -19 -113
-28 -19 -17 -57 -130 -57 -172 0 -15 9 -35 19 -44 18 -16 29 -17 96 -8 42 6
82 16 90 22 10 8 15 31 15 66 0 47 -2 54 -20 54 -11 0 -20 -7 -20 -15 0 -24
-38 -55 -66 -55 -25 0 -26 2 -20 42 9 54 12 58 45 58 16 0 80 9 142 20 63 11
117 20 121 20 5 0 -13 -42 -39 -94 l-46 -93 201 -237 c111 -130 204 -247 208
-260 10 -42 0 -60 -51 -94 -39 -26 -56 -32 -79 -28 -41 8 -58 26 -209 214
-101 124 -137 162 -152 160 -38 -6 -27 -44 65 -211 111 -203 117 -219 97 -251
-17 -26 -93 -56 -140 -56 -45 0 -71 37 -163 230 -71 150 -86 175 -107 178 -14
2 -27 -3 -30 -11 -3 -8 17 -100 44 -203 27 -104 46 -197 43 -207 -7 -24 -30
-33 -95 -41 -47 -6 -59 -4 -82 14 -31 24 -33 33 -55 245 l-17 160 -27 3 c-33
4 -32 8 -53 -202 -17 -167 -22 -186 -57 -210 -23 -17 -114 -13 -150 6 -28 14
-22 59 27 249 25 95 44 178 41 186 -3 7 -16 13 -29 13 -21 0 -34 -22 -113
-186 -53 -113 -98 -194 -114 -206 -30 -24 -87 -21 -146 8 -34 16 -39 24 -42
56 -3 32 13 67 99 223 85 156 99 188 88 201 -7 8 -20 14 -29 12 -10 -2 -76
-75 -148 -164 -153 -189 -184 -218 -224 -210 -42 8 -107 53 -113 79 -10 38 9
68 136 218 67 79 156 184 198 232 l75 88 -44 89 c-24 49 -42 92 -39 94 3 3 54
-3 115 -14 60 -10 124 -20 143 -22 30 -3 36 -8 48 -42 16 -48 7 -61 -37 -51
-23 5 -35 15 -42 36 -17 49 -42 34 -46 -27 -4 -65 6 -73 103 -86 67 -9 78 -8
96 8 24 22 24 59 -2 146 -15 51 -26 71 -42 77 -12 5 -85 19 -162 31 -475 72
-933 272 -1350 589 -142 107 -431 399 -541 546 -306 409 -480 826 -567 1360
-21 128 -21 157 -27 1985 -6 1631 -9 1864 -22 1930 -43 204 -81 317 -159 473
-138 275 -387 519 -629 618 -125 51 -172 114 -144 195 14 40 56 84 62 65 2 -6
9 -48 15 -93 10 -72 15 -83 32 -83 20 0 20 8 23 1303 l2 1302 3765 0 3765 0 2
-1302z m-7544 -1463 c144 -69 224 -126 337 -240 191 -192 320 -436 386 -730
23 -99 23 -106 26 -1033 l4 -932 -45 45 c-55 54 -174 134 -273 181 -87 42 -87
43 -215 -73 -116 -103 -203 -202 -189 -216 7 -7 20 -3 40 14 120 99 223 175
259 192 l42 21 47 -23 c134 -65 258 -174 304 -266 l30 -62 -3 -334 c-4 -308
-6 -340 -27 -414 -23 -85 -113 -278 -154 -333 l-25 -33 -66 95 c-36 52 -66 99
-66 104 0 5 41 44 90 86 80 68 90 80 90 110 0 41 -61 163 -102 205 -46 47 -77
42 -165 -24 -67 -51 -73 -58 -73 -91 0 -20 8 -49 17 -65 9 -15 15 -30 12 -32
-87 -73 -332 -257 -336 -253 -10 10 -82 336 -107 490 -40 243 -49 341 -49 521
0 397 90 718 395 1415 219 500 253 606 246 769 -3 76 -9 107 -30 151 -35 75
-98 144 -161 175 -129 62 -322 32 -429 -69 l-28 -25 0 49 0 49 63 29 c80 38
147 52 252 52 68 0 85 3 85 15 0 8 -11 17 -25 21 -46 11 -267 -2 -313 -19
l-43 -17 7 23 c20 66 18 64 111 77 70 11 111 11 201 1 63 -7 116 -10 119 -7
23 23 -111 57 -261 65 l-109 6 28 33 c21 25 26 39 21 62 -3 17 -2 30 3 30 18
0 217 -73 264 -97 58 -29 91 -25 61 8 -17 19 -236 131 -336 173 -27 10 -38 21
-38 35 0 12 1 21 3 21 1 0 70 -30 152 -66 181 -79 185 -81 185 -61 0 18 -59
56 -207 132 -116 60 -145 83 -158 125 -8 24 -7 24 16 7 13 -9 75 -42 137 -72z
m7712 65 c0 -29 -43 -63 -154 -121 -148 -76 -216 -119 -216 -135 0 -8 3 -14 8
-14 4 0 75 30 157 66 190 83 188 83 177 54 -6 -17 -46 -40 -153 -90 -164 -76
-229 -114 -229 -135 0 -21 8 -19 81 14 66 30 234 91 250 91 4 0 6 -12 3 -27
-4 -20 2 -38 21 -63 l26 -35 -108 -6 c-133 -8 -253 -34 -253 -56 0 -12 10 -13
68 -6 83 10 221 10 285 -1 42 -6 49 -11 62 -43 21 -51 20 -52 -27 -35 -46 16
-268 29 -313 18 -14 -4 -25 -13 -25 -21 0 -12 17 -15 88 -15 159 0 304 -52
316 -112 14 -69 10 -71 -44 -29 -61 48 -138 78 -223 87 -173 18 -315 -79 -368
-250 -18 -56 -21 -84 -16 -160 9 -151 47 -263 257 -741 228 -520 313 -776 366
-1100 22 -133 25 -429 5 -580 -28 -224 -116 -669 -140 -713 -5 -9 -55 24 -172
114 -90 70 -165 128 -167 129 -2 2 7 23 19 48 29 60 20 80 -67 146 -84 64
-113 66 -163 13 -38 -40 -101 -159 -101 -191 0 -36 12 -50 98 -123 48 -39 89
-73 91 -74 1 -2 -8 -18 -21 -36 -14 -18 -46 -64 -72 -101 l-48 -69 -30 44
c-75 110 -137 264 -163 401 -13 68 -15 144 -13 384 3 293 3 299 27 348 43 88
175 201 317 273 l42 21 88 -59 c49 -32 121 -86 159 -119 68 -59 95 -73 95 -50
0 32 -268 292 -321 311 -42 16 -281 -124 -372 -218 l-38 -39 4 930 c3 899 4
933 24 1025 67 302 193 546 384 740 109 110 197 174 334 240 66 32 129 66 140
74 25 20 25 20 25 -4z m-7251 -3819 c17 -32 31 -64 31 -69 0 -15 -502 -412
-512 -406 -27 17 6 51 190 194 108 84 201 157 207 162 6 5 1 26 -15 55 -14 26
-25 50 -25 54 0 8 75 67 86 68 3 1 20 -26 38 -58z m6761 -7 c0 -2 -12 -28 -26
-56 -14 -28 -22 -54 -17 -57 5 -3 98 -75 206 -159 160 -124 197 -158 197 -178
0 -13 -3 -24 -7 -24 -7 0 -481 374 -506 399 -10 10 5 48 38 101 l26 41 44 -31
c25 -17 45 -33 45 -36z m-6451 -1074 c27 -224 66 -414 126 -601 285 -885 946
-1576 1834 -1914 l84 -32 -129 -96 -129 -95 -33 29 c-50 44 -82 39 -163 -26
-79 -64 -91 -91 -63 -143 28 -53 114 -143 151 -158 35 -15 55 -11 93 18 23 19
25 19 38 1 8 -10 38 -66 68 -125 l54 -108 -137 0 c-301 0 -594 70 -898 214
-157 75 -198 127 -236 301 -14 64 -19 293 -7 336 6 21 31 35 175 94 180 73
192 80 177 95 -6 6 -79 -9 -209 -43 -232 -60 -217 -48 -236 -197 -12 -102 -6
-233 16 -337 7 -35 10 -63 7 -63 -15 0 -170 129 -270 225 -297 285 -429 560
-499 1040 -15 103 -18 205 -18 715 -1 584 -2 596 -24 675 -56 198 -176 342
-371 440 -73 37 -156 65 -194 65 -55 0 -62 14 -23 44 33 25 37 26 88 15 97
-19 231 -93 318 -175 43 -41 84 -74 90 -74 24 0 8 32 -45 89 -66 72 -156 141
-239 185 l-60 31 59 3 c53 3 64 0 114 -34 71 -47 179 -157 217 -223 18 -31 37
-51 48 -51 14 0 17 5 12 23 -15 47 -95 166 -159 235 -33 35 -31 37 26 20 36
-11 40 -10 68 17 l29 28 5 -24 c20 -91 50 -209 62 -236 17 -42 50 -46 39 -5
-15 59 -35 191 -40 262 -6 70 -4 77 19 103 14 15 28 27 31 27 3 0 5 -39 5 -87
1 -144 23 -263 46 -241 3 4 5 69 5 145 -1 166 11 286 36 338 18 38 18 36 25
-296 3 -184 11 -377 17 -429z m6089 448 c3 -115 9 -208 14 -208 15 0 27 46 33
127 3 43 8 107 11 142 l6 64 24 -29 c17 -21 23 -42 24 -74 0 -45 -34 -273 -46
-304 -4 -11 -1 -16 13 -16 22 0 45 65 79 218 l16 73 29 -27 c27 -26 31 -27 67
-16 57 17 58 17 9 -40 -53 -64 -97 -128 -126 -186 -19 -37 -20 -43 -6 -48 9
-4 17 -5 18 -3 2 2 16 24 32 49 40 63 159 184 222 226 47 31 59 35 110 32 l58
-3 -61 -32 c-141 -74 -346 -273 -281 -273 7 0 33 21 57 46 95 97 235 179 349
203 51 11 55 10 89 -16 41 -31 39 -33 -63 -52 -113 -21 -287 -120 -369 -211
-62 -69 -115 -159 -140 -240 -42 -132 -47 -206 -37 -563 15 -519 -6 -867 -65
-1122 -70 -297 -190 -518 -399 -734 -96 -100 -306 -281 -326 -281 -3 0 1 28 9
63 17 69 22 297 9 389 -5 32 -16 67 -25 78 -13 15 -68 33 -211 70 -107 27
-198 47 -203 44 -21 -13 8 -30 172 -97 l175 -72 7 -40 c22 -123 -2 -343 -48
-446 -37 -82 -82 -120 -218 -185 -282 -134 -586 -204 -884 -204 l-134 0 62
118 c35 64 66 121 70 125 4 5 25 -4 46 -18 59 -40 98 -23 181 78 84 102 82
134 -17 214 -78 63 -112 68 -162 24 l-34 -29 -127 95 -128 96 103 38 c137 51
418 192 546 273 231 146 476 352 637 535 369 420 598 872 709 1398 47 221 58
346 64 718 l5 350 25 -55 c24 -52 26 -67 30 -262z m-6440 195 l73 -106 -29
-29 -29 -30 -74 23 c-59 18 -98 23 -191 24 -91 0 -114 3 -105 12 18 18 271
212 277 212 3 0 38 -47 78 -106z m6980 -34 l113 -87 -73 5 c-79 6 -195 -8
-272 -33 l-48 -16 -29 29 -29 29 51 74 c29 41 63 90 76 108 l25 33 36 -28 c21
-15 88 -67 150 -114z m-7367 -394 c5 -4 -16 -19 -48 -35 -32 -15 -79 -46 -104
-68 -26 -23 -49 -38 -53 -35 -15 16 -3 95 20 121 21 26 152 37 185 17z m7639
1 c42 -15 60 -46 60 -103 0 -50 -7 -53 -41 -17 -34 37 -103 83 -147 98 -24 9
-32 16 -22 19 39 14 47 15 80 15 19 0 51 -5 70 -12z m-4732 -2805 c10 -6 -56
-59 -221 -180 -129 -94 -240 -171 -245 -171 -11 0 -92 90 -92 103 0 10 63 66
75 67 5 0 26 -16 46 -36 l38 -37 178 131 c98 72 185 131 193 131 8 1 21 -3 28
-8z m1895 -122 l179 -132 41 41 42 40 42 -37 42 -38 -45 -51 c-25 -29 -50 -52
-55 -52 -5 0 -115 77 -244 172 -223 163 -249 188 -195 188 8 0 95 -59 193
-131z m-1735 -18 l49 -88 -179 -194 c-98 -107 -181 -194 -184 -194 -4 0 -38
56 -77 125 -46 83 -66 128 -61 137 10 15 385 302 396 302 3 1 28 -39 56 -88z
m1617 -64 l204 -154 -66 -119 c-36 -65 -70 -124 -77 -131 -8 -8 -54 35 -186
179 -96 104 -176 193 -178 198 -3 8 86 180 94 180 2 0 96 -69 209 -153z"/>
<path d="M2950 12442 l0 -1238 33 -16 c17 -8 53 -32 80 -52 l47 -36 0 1205 0
1205 3435 0 3435 0 0 -1205 c0 -663 2 -1205 5 -1205 3 0 27 17 54 38 27 20 63
45 80 54 l31 17 0 1236 0 1235 -3600 0 -3600 0 0 -1238z"/>
<path d="M6607 13341 c-21 -36 -21 -41 -1 -41 16 0 34 17 55 53 8 14 6 17 -13
17 -15 0 -30 -10 -41 -29z"/>
<path d="M3949 13266 c-33 -19 -50 -58 -56 -131 -10 -114 32 -195 100 -195 37
0 73 27 88 68 6 15 11 61 11 103 0 77 -14 122 -45 147 -23 19 -70 23 -98 8z
m72 -73 c15 -40 7 -169 -12 -188 -14 -14 -17 -14 -34 5 -14 16 -18 37 -19 93
0 75 14 117 40 117 8 0 19 -12 25 -27z"/>
<path d="M6241 13255 c-68 -58 -63 -267 8 -305 50 -26 108 0 125 56 5 17 1 23
-16 27 -17 5 -28 0 -44 -20 l-21 -26 -16 24 c-20 27 -24 157 -7 190 14 24 34
24 51 0 11 -15 19 -17 37 -10 22 8 22 10 7 39 -28 55 -76 65 -124 25z"/>
<path d="M6580 13267 c-40 -20 -60 -72 -60 -159 0 -42 4 -88 9 -101 15 -40 51
-67 88 -67 68 0 110 81 100 195 -5 73 -26 117 -62 133 -32 15 -44 15 -75 -1z
m58 -64 c27 -53 24 -170 -6 -199 -13 -14 -17 -14 -31 0 -19 20 -28 148 -12
189 12 31 36 36 49 10z"/>
<path d="M8890 13268 c-66 -35 -63 -118 5 -175 48 -39 57 -55 49 -77 -8 -22
-29 -26 -58 -11 -23 12 -27 12 -41 -8 -14 -20 -14 -23 6 -39 35 -29 95 -23
130 11 50 51 38 108 -39 175 -46 40 -42 72 10 69 30 -2 38 2 43 18 4 12 3 25
-2 30 -17 17 -77 20 -103 7z"/>
<path d="M3690 13110 l0 -160 30 0 30 0 0 60 0 60 35 0 c64 0 100 74 71 144
-18 44 -42 56 -110 56 l-56 0 0 -160z m98 98 c26 -26 8 -88 -25 -88 -9 0 -13
16 -13 50 0 51 12 64 38 38z"/>
<path d="M4140 13110 l0 -160 30 0 30 0 0 61 c0 72 13 70 35 -6 15 -53 17 -55
49 -55 l34 0 -21 65 c-19 59 -19 66 -5 82 25 28 31 77 14 116 -18 45 -41 57
-110 57 l-56 0 0 -160z m98 98 c26 -26 8 -88 -25 -88 -9 0 -13 16 -13 50 0 51
12 64 38 38z"/>
<path d="M4440 13110 l0 -160 70 0 c68 0 70 1 70 25 0 23 -4 25 -40 25 l-40 0
0 135 0 135 -30 0 -30 0 0 -160z"/>
<path d="M4655 13248 c-3 -13 -18 -85 -34 -160 l-29 -138 33 0 c29 0 34 4 37
28 3 23 8 27 33 27 25 0 30 -4 33 -27 3 -25 8 -28 38 -28 31 0 34 2 29 23 -3
12 -18 83 -34 157 l-27 135 -37 3 c-31 3 -37 0 -42 -20z m58 -150 c5 -35 4
-38 -17 -38 -22 0 -22 1 -13 62 11 66 16 62 30 -24z"/>
<path d="M4900 13110 l0 -160 35 0 35 0 0 62 c0 71 11 68 33 -7 13 -45 17 -50
45 -53 37 -4 38 -2 13 69 -18 54 -18 55 0 78 29 36 26 115 -6 146 -21 22 -33
25 -90 25 l-65 0 0 -160z m101 100 c34 -19 20 -90 -18 -90 -9 0 -13 16 -13 50
0 54 1 55 31 40z"/>
<path d="M5130 13110 l0 -160 70 0 c68 0 70 1 70 25 0 23 -4 25 -40 25 l-40 0
0 40 0 40 40 0 c38 0 40 2 40 30 0 28 -2 30 -41 30 l-40 0 3 38 c3 35 5 37 41
40 32 3 37 7 37 28 0 23 -2 24 -70 24 l-70 0 0 -160z"/>
<path d="M5326 13130 c-15 -77 -30 -149 -33 -161 -5 -18 -2 -20 28 -17 26 2
34 8 39 28 4 18 13 26 33 28 23 3 28 -1 33 -27 6 -26 11 -31 35 -31 18 0 29 5
29 13 0 8 -13 78 -30 155 -16 78 -30 144 -30 147 0 3 -17 5 -38 5 l-37 0 -29
-140z m83 -47 c1 -17 -5 -23 -20 -23 -22 0 -22 -1 -2 93 l7 32 7 -40 c4 -22 8
-50 8 -62z"/>
<path d="M5520 13110 l0 -160 70 0 c68 0 70 1 70 25 0 23 -4 25 -40 25 l-40 0
0 135 0 135 -30 0 -30 0 0 -160z"/>
<path d="M5700 13110 l0 -160 30 0 30 0 0 160 0 160 -30 0 -30 0 0 -160z"/>
<path d="M5800 13245 c0 -22 4 -25 40 -25 22 0 40 -2 40 -5 0 -3 -18 -53 -40
-111 -22 -59 -40 -117 -40 -130 0 -23 3 -24 80 -24 78 0 80 1 80 24 0 22 -5
25 -44 28 l-44 3 38 100 c22 55 39 115 40 133 l0 32 -75 0 c-73 0 -75 -1 -75
-25z"/>
<path d="M6036 13253 c-3 -10 -17 -74 -31 -143 -14 -69 -28 -133 -31 -142 -4
-15 1 -18 30 -18 30 0 35 3 38 28 3 23 8 27 33 27 25 0 30 -4 33 -27 3 -24 8
-28 37 -28 l33 0 -29 138 c-16 75 -31 147 -34 160 -4 17 -12 22 -40 22 -23 0
-35 -5 -39 -17z m52 -136 c9 -56 9 -57 -15 -57 -18 0 -23 4 -19 18 2 9 8 36
11 60 4 24 9 42 11 40 1 -2 7 -29 12 -61z"/>
<path d="M6410 13110 l0 -160 35 0 35 0 0 160 0 160 -35 0 -35 0 0 -160z"/>
<path d="M6760 13111 l0 -161 30 0 29 0 3 83 3 82 30 -82 c29 -81 31 -83 63
-83 l32 0 0 160 0 160 -35 0 -35 0 -1 -77 0 -78 -27 75 c-25 71 -29 75 -59 78
l-33 3 0 -160z"/>
<path d="M7080 13110 l0 -160 30 0 30 0 0 60 0 60 33 0 c60 0 95 64 75 136
-13 47 -42 64 -110 64 l-58 0 0 -160z m98 98 c26 -26 8 -88 -25 -88 -9 0 -13
16 -13 50 0 51 12 64 38 38z"/>
<path d="M7290 13110 l0 -160 70 0 c68 0 70 1 70 25 0 23 -4 25 -40 25 l-40 0
0 135 0 135 -30 0 -30 0 0 -160z"/>
<path d="M7470 13110 l0 -160 70 0 c68 0 70 1 70 25 0 23 -4 25 -40 25 l-40 0
0 40 0 40 40 0 c38 0 40 2 40 30 0 28 -2 30 -41 30 l-40 0 3 38 c3 35 5 37 41
40 32 3 37 7 37 28 0 23 -2 24 -70 24 l-70 0 0 -160z"/>
<path d="M7650 13110 l0 -160 35 0 35 0 1 83 0 82 15 -40 c45 -126 44 -125 75
-125 l29 0 0 160 0 160 -30 0 -29 0 -3 -82 -3 -83 -28 83 c-28 81 -29 82 -63
82 l-34 0 0 -160z"/>
<path d="M7902 13118 c-18 -84 -32 -156 -32 -160 0 -5 13 -8 29 -8 25 0 31 5
36 30 5 25 12 30 35 30 23 0 29 -5 34 -30 5 -26 10 -30 37 -30 27 0 31 3 27
23 -3 12 -18 84 -33 160 l-28 137 -37 0 -37 0 -31 -152z m78 35 c0 -10 3 -35
6 -55 6 -35 5 -38 -16 -38 -21 0 -22 3 -16 38 3 20 6 45 6 55 0 9 5 17 10 17
6 0 10 -8 10 -17z"/>
<path d="M8180 13110 l0 -160 63 0 c54 0 67 4 85 23 45 48 56 161 23 234 -24
52 -45 63 -115 63 l-56 0 0 -160z m103 92 c41 -45 26 -194 -21 -200 -22 -3
-22 -2 -22 107 0 117 7 133 43 93z"/>
<path d="M8410 13110 l0 -160 70 0 c68 0 70 1 70 25 0 23 -4 25 -40 25 l-40 0
0 40 0 40 40 0 c38 0 40 2 40 30 0 28 -2 30 -41 30 l-40 0 3 38 c3 35 5 37 41
40 32 3 37 7 37 28 0 23 -2 24 -70 24 l-70 0 0 -160z"/>
<path d="M8600 13110 l0 -160 70 0 c68 0 70 1 70 25 0 23 -4 25 -40 25 l-40 0
0 135 0 135 -30 0 -30 0 0 -160z"/>
<path d="M9050 13110 l0 -160 70 0 c68 0 70 1 70 25 0 23 -4 25 -40 25 -40 0
-40 0 -40 39 0 39 1 40 38 43 32 3 37 7 40 31 3 26 1 27 -37 27 l-41 0 0 40 0
40 40 0 c36 0 40 3 40 25 0 24 -2 25 -70 25 l-70 0 0 -160z"/>
<path d="M9230 13110 l0 -160 30 0 c28 0 29 1 32 58 2 31 7 56 13 55 5 -1 16
-27 24 -57 14 -54 16 -56 48 -56 39 0 39 0 14 71 -18 54 -18 55 0 78 34 42 17
148 -26 165 -9 3 -43 6 -76 6 l-59 0 0 -160z m104 94 c28 -28 12 -84 -24 -84
-17 0 -20 7 -20 43 0 59 14 72 44 41z"/>
<path d="M4093 9378 c2 -2391 6 -3079 15 -3138 82 -488 219 -824 480 -1170
495 -655 1297 -1024 2108 -970 598 40 1131 275 1553 685 427 415 683 944 741
1534 6 67 10 1144 10 3112 l0 3009 -2455 0 -2455 0 3 -3062z m657 2582 c0 -89
-3 -110 -14 -110 -8 0 -18 10 -22 23 -4 12 -12 25 -18 29 -17 11 -266 9 -308
-2 -81 -23 -115 -117 -64 -177 34 -41 85 -53 219 -53 137 0 165 8 173 50 4 16
13 30 20 30 11 0 14 -21 14 -95 0 -74 -3 -95 -14 -95 -8 0 -17 11 -20 25 -8
31 -17 33 -188 39 -164 5 -211 21 -254 86 -24 36 -28 53 -28 109 0 89 25 138
84 169 40 20 58 22 201 22 130 0 160 3 173 16 9 8 16 22 16 30 0 8 7 14 15 14
12 0 15 -19 15 -110z m4090 10 c0 -82 -3 -100 -15 -100 -8 0 -15 3 -15 8 0 4
-4 13 -9 20 -6 10 -19 9 -64 -8 l-57 -21 0 -64 0 -63 44 -11 c24 -6 51 -13 59
-17 12 -4 18 2 23 20 3 14 12 26 20 26 11 0 14 -19 14 -85 0 -66 -3 -85 -14
-85 -8 0 -17 11 -20 25 -8 31 -19 37 -256 125 -187 70 -210 81 -210 106 0 6
82 39 183 74 244 83 276 97 283 126 3 13 12 24 20 24 11 0 14 -21 14 -100z
m-662 -2992 l-3 -2643 -23 -108 c-108 -508 -436 -929 -897 -1152 -615 -297
-1347 -180 -1837 293 -259 250 -409 525 -485 888 -15 72 -17 302 -20 2722 l-3
2642 1635 0 1635 0 -2 -2642z m201 2542 l10 -30 198 0 c206 0 223 3 223 42 0
10 7 18 15 18 12 0 15 -19 15 -110 0 -87 -3 -110 -14 -110 -8 0 -17 11 -20 24
-3 13 -16 26 -28 30 -13 3 -101 6 -195 6 -160 0 -175 -2 -193 -20 -11 -11 -20
-24 -20 -30 0 -5 -7 -10 -15 -10 -12 0 -15 18 -15 103 0 57 3 107 7 110 12 13
21 7 32 -23z m-3629 -67 l-1 -68 -166 -135 -166 -135 84 -3 c46 -1 111 1 144
5 56 8 60 10 69 41 5 17 15 32 22 32 11 0 14 -21 14 -90 0 -69 -3 -90 -13 -90
-8 0 -19 11 -25 24 -14 32 -43 36 -268 36 l-194 0 0 23 c0 19 38 54 181 165
l181 142 -128 -1 c-169 -2 -186 -6 -198 -47 -5 -17 -15 -32 -22 -32 -11 0 -14
22 -14 95 0 71 3 95 13 95 7 0 17 -13 23 -28 14 -36 49 -42 246 -42 134 0 140
1 163 25 14 13 25 31 25 40 0 8 7 15 15 15 12 0 15 -14 15 -67z m3629 -217
c12 -31 54 -36 282 -36 l179 0 -1 -27 c0 -24 -25 -47 -181 -165 l-180 -138
118 1 c170 0 197 6 209 47 5 17 15 32 22 32 10 0 13 -23 13 -90 0 -69 -3 -90
-13 -90 -8 0 -19 11 -25 24 -13 30 -49 36 -230 36 -152 0 -177 -6 -192 -46 -5
-13 -16 -24 -25 -24 -12 0 -15 13 -14 63 l0 62 170 138 170 137 -103 -1 c-57
0 -123 -4 -147 -7 -40 -6 -46 -11 -53 -39 -5 -19 -15 -33 -23 -33 -12 0 -15
17 -15 90 0 74 3 90 15 90 9 0 20 -11 24 -24z m-4093 -320 c3 -13 15 -27 27
-30 29 -7 345 -7 374 0 12 3 24 17 27 30 4 13 13 24 21 24 12 0 15 -19 15
-105 0 -81 -3 -105 -13 -105 -8 0 -19 11 -25 25 l-12 25 -200 0 -200 0 -12
-25 c-6 -14 -17 -25 -25 -25 -10 0 -13 24 -13 105 0 86 3 105 15 105 8 0 17
-11 21 -24z m4559 -233 c-12 -72 -15 -80 -42 -107 -15 -15 -60 -43 -100 -62
-53 -26 -73 -41 -73 -55 0 -17 8 -19 81 -19 81 0 81 0 92 30 6 17 17 30 24 30
10 0 13 -27 13 -110 0 -83 -3 -110 -13 -110 -7 0 -18 14 -24 30 l-11 30 -201
0 -201 0 -10 -25 c-5 -14 -16 -25 -25 -25 -12 0 -15 18 -15 110 0 205 26 255
132 255 58 0 62 -1 98 -42 l37 -42 88 52 c48 28 95 62 104 74 9 12 24 23 34
23 15 0 17 -6 12 -37z m-4095 -118 c0 -87 -3 -105 -15 -105 -8 0 -15 6 -15 13
-1 39 -16 38 -151 -12 -74 -27 -143 -53 -153 -57 -15 -6 17 -20 124 -56 80
-26 150 -48 157 -48 7 0 15 11 19 25 3 14 12 25 20 25 11 0 14 -19 14 -85 0
-93 -12 -108 -41 -56 -16 28 -81 57 -419 185 -26 10 -35 20 -35 36 0 20 23 31
219 103 188 70 222 85 235 109 31 54 41 35 41 -77z m3965 -342 c87 -45 129
-117 129 -218 0 -105 -49 -183 -141 -222 -53 -22 -170 -17 -228 11 -94 43
-139 120 -139 232 1 98 56 175 153 211 52 19 176 12 226 -14z m-4435 -88 c0
-8 9 -24 20 -35 18 -18 33 -20 193 -20 94 0 182 3 195 6 12 4 25 17 28 30 3
13 12 24 20 24 11 0 14 -31 14 -170 l0 -170 -65 0 c-49 0 -65 3 -65 14 0 8 13
17 30 21 41 9 60 40 60 97 l0 48 -90 0 -90 0 0 -38 c0 -43 16 -69 45 -74 11
-2 20 -10 20 -18 0 -12 -17 -16 -82 -18 -78 -3 -83 -2 -83 18 0 13 7 20 18 20
29 0 42 21 42 67 l0 43 -89 0 c-107 0 -117 -7 -108 -82 7 -58 26 -84 68 -93
20 -5 29 -13 29 -26 0 -17 -5 -18 -42 -13 -24 4 -54 10 -68 14 l-25 6 -3 182
c-2 158 0 182 13 182 8 0 15 -7 15 -15z m4190 -429 c0 -6 -15 -16 -32 -21 -41
-12 -58 -45 -58 -112 l0 -53 95 0 95 0 0 41 c0 50 -15 79 -40 79 -13 0 -20 7
-20 20 0 18 7 20 80 20 73 0 80 -2 80 -20 0 -14 -7 -20 -24 -20 -28 0 -36 -16
-36 -76 l0 -44 91 0 91 0 11 30 c6 17 17 30 24 30 10 0 13 -27 13 -110 0 -87
-3 -110 -14 -110 -8 0 -17 11 -20 24 -3 13 -16 26 -28 30 -13 3 -101 6 -195 6
-160 0 -175 -2 -193 -20 -11 -11 -20 -24 -20 -30 0 -5 -7 -10 -15 -10 -13 0
-15 27 -15 180 l0 179 58 3 c65 3 72 2 72 -16z m-4182 -20 c14 -31 45 -36 212
-36 167 0 198 5 212 36 6 13 18 24 26 24 19 0 13 -271 -8 -313 -18 -37 -58
-57 -116 -57 -41 0 -51 5 -86 40 -22 22 -43 40 -47 40 -16 0 -172 -103 -189
-125 -11 -14 -25 -25 -31 -25 -14 0 -14 53 -1 102 12 41 63 83 145 119 38 17
65 43 65 63 0 3 -36 6 -79 6 -81 0 -111 -12 -111 -46 0 -8 -7 -14 -15 -14 -12
0 -15 18 -15 105 0 81 3 105 13 105 8 0 19 -11 25 -24z m4088 -428 c4 -13 12
-26 18 -30 6 -4 95 -8 198 -8 156 0 189 3 202 16 9 8 16 22 16 30 0 8 7 14 15
14 12 0 15 -19 15 -110 0 -83 -3 -110 -13 -110 -7 0 -18 14 -24 30 l-11 30
-194 0 c-106 0 -198 -4 -204 -8 -6 -4 -15 -17 -19 -30 -3 -13 -12 -21 -18 -19
-8 2 -13 40 -15 110 -2 89 0 107 12 107 8 0 18 -10 22 -22z m-3976 -43 c0 -7
-9 -17 -20 -20 -31 -10 -81 -55 -91 -83 -15 -38 6 -79 47 -92 50 -17 83 3 119
72 17 31 39 66 50 78 70 77 185 62 233 -30 24 -48 27 -85 12 -142 -11 -38 -16
-41 -100 -50 -42 -5 -35 25 10 44 38 15 60 46 60 83 0 26 -35 56 -68 57 -40 1
-64 -20 -95 -85 -46 -98 -115 -139 -196 -117 -86 23 -132 113 -111 214 6 28
14 56 18 62 7 12 111 34 125 27 4 -2 7 -10 7 -18z m4425 -211 c21 -9 22 -354
1 -354 -7 0 -16 13 -19 29 -8 37 -29 41 -223 41 -164 0 -198 -7 -207 -39 -3
-12 -12 -21 -21 -21 -15 0 -16 14 -14 107 3 110 16 141 36 84 9 -26 16 -30 66
-36 31 -4 119 -6 196 -3 157 4 160 5 160 73 0 51 -20 80 -65 95 -35 12 -42 20
-27 34 7 8 89 0 117 -10z m-4537 -169 l12 -25 200 0 200 0 12 25 c6 14 17 25
25 25 10 0 13 -24 13 -105 0 -86 -3 -105 -15 -105 -8 0 -17 11 -21 24 -8 32
-33 36 -220 36 -163 0 -198 -7 -209 -39 -3 -12 -13 -21 -21 -21 -11 0 -14 21
-14 105 0 81 3 105 13 105 8 0 19 -11 25 -25z m4552 -325 c0 -82 -3 -100 -15
-100 -8 0 -15 7 -15 15 0 25 -27 28 -80 9 l-50 -18 0 -63 0 -62 55 -16 c59
-18 75 -14 75 16 0 10 7 19 15 19 12 0 15 -16 15 -85 0 -66 -3 -85 -14 -85 -8
0 -16 10 -20 23 -7 28 -11 30 -255 123 -181 68 -211 83 -211 109 0 6 86 39
190 74 232 78 266 93 275 120 3 12 13 21 21 21 11 0 14 -20 14 -100z m-4553
30 l11 -30 201 0 201 0 12 25 c6 14 18 25 26 25 12 0 14 -24 10 -157 -4 -152
-5 -160 -33 -212 -42 -76 -104 -111 -200 -111 -114 1 -189 49 -236 155 -19 42
-23 73 -27 193 -4 117 -2 142 10 142 7 0 19 -13 25 -30z m4490 -440 c54 -13
64 -32 70 -130 9 -130 -36 -222 -131 -266 -106 -49 -245 -22 -314 62 -49 60
-66 121 -60 226 3 49 8 92 12 95 10 11 129 9 133 -2 2 -6 -12 -17 -32 -23 -57
-21 -78 -57 -73 -125 3 -46 10 -63 33 -87 95 -99 341 -70 386 47 25 66 1 125
-68 168 -23 16 -43 31 -43 35 0 13 14 20 29 16 9 -3 35 -10 58 -16z m-4486
-48 c13 -22 42 -37 160 -81 295 -111 297 -111 302 -131 3 -11 -2 -21 -12 -25
-9 -4 -101 -36 -206 -72 -218 -75 -241 -85 -250 -113 -3 -11 -13 -20 -21 -20
-11 0 -14 20 -14 100 0 80 3 100 14 100 8 0 18 -9 21 -20 8 -25 17 -25 80 -1
l50 19 3 60 3 61 -52 15 c-70 21 -78 20 -85 -9 -3 -14 -12 -25 -20 -25 -11 0
-14 19 -14 85 0 92 12 108 41 57z m-5 -520 c9 -25 18 -30 59 -35 61 -9 248 -9
309 -1 37 5 50 12 58 30 6 13 18 24 26 24 12 0 13 -25 10 -157 -4 -148 -5
-161 -31 -210 -40 -77 -89 -107 -184 -112 -125 -6 -201 39 -251 149 -23 49
-26 71 -30 198 -4 117 -2 142 10 142 7 0 18 -13 24 -28z m4554 -252 c0 -78 -3
-100 -14 -100 -7 0 -16 10 -19 21 -6 23 -26 22 -94 -6 -34 -14 -34 -15 -31
-76 l3 -62 45 -13 c60 -18 71 -17 77 6 3 11 12 20 19 20 11 0 14 -19 14 -80 0
-87 -12 -103 -41 -52 -14 24 -46 40 -225 106 -115 43 -215 83 -222 89 -31 25
-2 41 189 107 233 80 251 88 264 118 5 12 15 22 22 22 10 0 13 -26 13 -100z
m-470 -388 c0 -5 6 -17 14 -27 12 -17 33 -19 228 -24 214 -6 215 -6 250 -33
44 -34 86 -114 69 -131 -9 -9 -17 -5 -34 15 -35 43 -70 51 -259 56 -208 5
-245 1 -260 -34 -6 -13 -17 -24 -25 -24 -10 0 -13 24 -13 105 0 87 3 105 15
105 8 0 15 -4 15 -8z m-4082 -111 c8 -23 23 -33 84 -56 344 -131 372 -142 379
-162 7 -20 -6 -26 -192 -89 -216 -73 -259 -93 -259 -123 0 -19 -26 -37 -33
-23 -3 4 -8 51 -12 105 -6 87 -5 97 10 97 9 0 19 -9 22 -20 7 -25 9 -25 78 2
l56 21 -3 60 -3 61 -58 17 -58 17 -11 -24 c-6 -13 -17 -24 -25 -24 -10 0 -13
21 -13 85 0 66 3 85 14 85 8 0 19 -13 24 -29z m4552 -251 c0 -80 -3 -100 -14
-100 -8 0 -18 9 -21 20 -8 24 -27 25 -88 4 l-47 -16 0 -59 c0 -58 1 -60 33
-74 69 -29 84 -29 91 -1 3 14 13 26 21 26 18 0 18 0 4 -95 -8 -52 -16 -75 -25
-75 -8 0 -14 8 -14 18 0 31 -26 46 -230 136 -174 77 -220 104 -220 126 0 4 60
24 133 44 277 77 327 95 339 122 6 13 17 24 25 24 10 0 13 -23 13 -100z
m-4073 -224 c6 -55 10 -103 7 -108 -9 -14 -21 -9 -27 12 -3 11 -13 23 -22 26
-20 8 -209 -47 -283 -82 -88 -43 -109 -119 -48 -180 30 -30 40 -34 88 -33 36
0 91 14 173 43 l120 42 3 37 c2 21 9 37 15 37 17 0 68 -168 54 -177 -6 -3 -17
3 -25 15 -20 30 -47 28 -171 -12 -199 -64 -283 -49 -332 59 -22 48 -25 145 -5
183 29 56 64 76 234 132 160 53 167 56 170 83 2 20 8 27 20 25 13 -2 19 -25
29 -102z m3702 -162 c18 -15 33 -39 37 -60 6 -34 7 -34 21 -14 19 26 65 50 99
50 40 0 101 -39 119 -76 24 -51 18 -100 -26 -232 -41 -119 -60 -145 -67 -89
-2 14 -9 30 -15 36 -15 12 -343 131 -362 131 -8 0 -21 -10 -29 -22 -10 -14
-19 -19 -25 -13 -17 17 67 251 101 286 40 39 102 41 147 3z m-3579 -271 c0
-36 102 -240 145 -291 l34 -38 -66 -33 c-76 -37 -102 -27 -49 19 l31 29 -20
36 c-11 21 -24 39 -30 41 -14 6 -337 -144 -352 -163 -8 -10 -9 -23 -2 -41 15
-39 -10 -48 -33 -11 -78 128 -111 237 -52 174 16 -18 31 -25 42 -20 59 22 352
160 352 165 0 4 -10 22 -23 41 -20 30 -28 34 -67 35 -68 1 -63 24 12 55 80 34
78 34 78 2z m3270 -372 c0 -17 -14 -19 -51 -6 l-39 14 -40 -51 -40 -50 62 -49
c35 -27 66 -49 69 -49 4 0 19 18 34 40 27 39 27 41 10 60 -10 11 -15 26 -11
35 6 17 21 9 110 -62 39 -31 30 -56 -14 -40 -30 11 -33 10 -60 -23 -16 -19
-30 -37 -30 -40 0 -7 99 -84 129 -100 23 -12 27 -10 58 26 43 52 50 86 25 129
-17 27 -18 36 -7 45 10 8 22 0 54 -36 22 -26 41 -50 41 -54 0 -12 -107 -159
-162 -222 -48 -56 -88 -78 -73 -40 17 39 15 48 -17 78 -60 57 -270 214 -285
214 -8 0 -23 -5 -33 -10 -40 -22 -30 12 24 75 30 36 76 94 101 129 l46 65 50
-35 c27 -20 49 -39 49 -43z m-2864 -117 c35 -25 64 -49 64 -53 0 -4 -7 -16
-15 -27 -14 -18 -18 -16 -75 44 -33 35 -58 67 -55 73 9 14 11 13 81 -37z
m-162 22 c53 -22 112 -82 136 -138 54 -125 -11 -258 -159 -326 -44 -20 -64
-24 -111 -19 -31 2 -71 12 -89 21 -56 30 -110 94 -127 153 -31 107 7 198 118
282 52 39 170 53 232 27z m2764 -232 c79 -33 141 -120 149 -212 6 -63 -8 -109
-54 -175 -35 -51 -234 -201 -245 -185 -4 7 0 20 8 29 7 8 14 22 14 31 0 8 -51
84 -113 169 -112 152 -114 154 -150 153 -22 -1 -37 3 -37 10 0 14 208 158 260
180 46 20 121 20 168 0z m-2421 -68 c0 -1 14 -97 29 -214 24 -186 30 -212 41
-195 40 54 123 203 123 221 0 12 -10 28 -22 36 -16 11 -19 19 -11 27 7 7 34
-1 92 -31 84 -42 95 -60 36 -60 -30 0 -39 -7 -78 -62 -25 -35 -78 -116 -118
-182 -41 -65 -80 -121 -87 -124 -30 -11 -40 25 -61 233 -12 116 -21 217 -21
225 0 17 -65 -82 -121 -184 -31 -58 -36 -73 -27 -92 6 -13 15 -24 20 -24 4 0
8 -7 8 -15 0 -8 -6 -15 -12 -15 -22 0 -150 100 -145 113 3 7 11 10 18 8 8 -2
21 -5 30 -8 20 -6 53 36 147 186 72 115 87 162 61 188 -7 7 -9 19 -5 28 5 15
13 12 54 -21 26 -21 48 -38 49 -38z m589 -290 c113 -53 159 -169 119 -303 -18
-62 -84 -139 -140 -164 -79 -36 -187 -20 -255 39 -59 50 -80 97 -80 179 1 112
52 202 142 247 68 34 143 35 214 2z m1134 -154 c141 -196 155 -212 192 -212
57 0 28 -27 -64 -58 -51 -18 -96 -32 -100 -32 -14 0 -8 23 8 35 20 14 13 38
-25 85 l-29 34 -56 -17 -56 -18 0 -66 c0 -64 1 -65 24 -59 16 4 26 1 29 -9 7
-16 0 -19 -95 -39 -65 -13 -68 -13 -68 5 0 11 7 19 15 19 27 0 33 34 50 260
16 216 22 245 50 237 5 -2 61 -76 125 -165z m-814 98 c17 0 31 -22 74 -117 30
-65 65 -142 78 -172 l25 -54 63 167 c34 92 64 169 66 171 1 2 36 7 76 10 52 6
72 4 72 -4 0 -6 -11 -16 -24 -20 -13 -5 -26 -19 -29 -30 -5 -20 10 -338 19
-378 3 -17 12 -23 29 -23 24 0 35 -23 17 -34 -4 -2 -51 -8 -105 -12 -86 -6
-97 -5 -97 10 0 9 8 16 20 16 12 0 23 9 28 23 9 28 3 307 -7 307 -4 0 -36 -81
-72 -180 -54 -153 -67 -180 -83 -178 -14 2 -38 47 -92 172 -41 93 -77 172 -80
175 -4 3 -4 -60 -2 -141 4 -151 12 -178 48 -178 10 0 20 -7 24 -15 6 -17 -30
-20 -121 -9 -56 7 -71 27 -29 38 31 8 36 40 36 236 0 125 -3 160 -16 178 -8
12 -22 22 -30 22 -8 0 -14 7 -14 16 0 14 8 16 53 10 28 -3 61 -6 73 -6z"/>
<path d="M8550 11826 c-56 -20 -61 -24 -40 -29 14 -4 46 -13 73 -21 l47 -15 0
44 c0 25 -3 45 -7 44 -5 0 -37 -11 -73 -23z"/>
<path d="M6365 11401 c-44 -10 -114 -26 -155 -36 -64 -16 -84 -17 -143 -7 -99
17 -189 15 -246 -7 -56 -21 -173 -100 -169 -113 4 -12 8 -11 72 18 85 39 155
50 230 37 87 -15 176 -56 176 -81 0 -36 -20 -42 -90 -25 -123 29 -230 3 -299
-71 -31 -33 -9 -36 43 -5 95 56 298 15 284 -58 -3 -15 -10 -17 -43 -13 -80 10
-132 3 -175 -21 -49 -27 -68 -57 -29 -45 91 28 154 23 217 -16 23 -14 32 -26
30 -41 -3 -19 -10 -21 -68 -22 -47 0 -74 -5 -94 -18 -15 -10 -25 -21 -22 -25
3 -3 33 -4 66 -3 79 3 153 -27 148 -61 -3 -20 -8 -23 -45 -20 -23 2 -52 -2
-65 -9 -22 -12 -21 -12 17 -24 22 -6 76 -38 120 -70 142 -103 269 -148 403
-143 42 2 76 7 75 13 -1 5 -29 15 -61 21 -217 44 -369 260 -332 473 31 181
163 317 343 352 64 13 72 23 26 33 -52 10 -130 5 -214 -13z"/>
<path d="M6710 11369 c-123 -24 -235 -115 -293 -237 -29 -61 -32 -75 -31 -162
0 -114 22 -177 87 -260 138 -174 406 -200 583 -55 81 67 144 201 144 309 0
197 -142 370 -335 405 -67 12 -91 12 -155 0z m107 -273 c15 -18 26 -22 51 -18
31 4 32 3 32 -32 0 -27 7 -43 26 -59 l26 -23 -26 -13 c-22 -12 -26 -21 -26
-57 l0 -43 -32 10 c-34 9 -42 4 -68 -40 -6 -12 -13 -9 -34 16 -23 28 -30 30
-56 23 -30 -8 -30 -8 -30 30 0 29 -6 43 -26 59 l-25 20 25 17 c21 13 26 24 26
56 l0 41 34 -6 c29 -5 37 -2 51 19 19 30 29 30 52 0z"/>
<path d="M5235 10895 c-21 -20 -25 -34 -25 -82 0 -161 38 -275 196 -598 121
-249 184 -356 262 -449 22 -27 48 -69 57 -95 43 -115 174 -321 261 -407 34
-34 44 -54 58 -115 19 -77 71 -217 87 -233 5 -6 9 -31 9 -57 0 -26 7 -82 15
-123 21 -111 13 -379 -15 -511 -15 -68 -24 -152 -27 -265 -6 -192 6 -294 68
-573 52 -237 56 -292 34 -497 -23 -210 -16 -292 50 -542 25 -95 55 -218 67
-274 l21 -101 -32 -154 c-40 -200 -41 -253 -1 -307 16 -23 55 -59 86 -79 49
-32 66 -38 125 -41 59 -4 77 0 123 22 68 33 131 101 146 156 10 36 8 60 -10
149 -58 282 -59 266 20 561 84 316 93 406 64 638 -20 162 -15 232 35 460 64
290 74 379 68 587 -4 130 -11 205 -26 269 -27 117 -35 387 -15 494 8 41 14 93
14 117 0 26 11 67 30 106 27 59 80 226 80 253 0 7 24 37 53 67 74 77 171 223
223 337 55 118 45 101 125 206 71 93 136 211 255 461 135 282 164 377 164 530
0 68 -2 75 -26 94 -15 12 -34 21 -44 21 -29 0 -67 -37 -86 -85 -11 -25 -27
-48 -36 -51 -9 -3 -40 -44 -68 -92 -51 -87 -51 -87 -46 -157 7 -97 -12 -133
-131 -242 -110 -100 -190 -202 -251 -320 -35 -68 -59 -97 -133 -165 -73 -67
-128 -130 -185 -216 -1 -2 -24 -9 -50 -16 -27 -7 -60 -16 -73 -21 -28 -8 -28
-8 14 145 33 120 42 233 25 295 -16 56 -77 128 -127 148 -170 67 -344 -19
-369 -181 -9 -58 12 -208 42 -302 36 -114 37 -111 -48 -89 -40 10 -74 23 -76
29 -11 32 -101 136 -181 209 -74 68 -100 99 -128 155 -59 117 -131 212 -239
314 -56 53 -114 117 -128 142 -23 40 -25 52 -19 116 l6 72 -49 82 c-27 46 -57
88 -67 94 -10 6 -29 32 -43 58 -40 78 -86 97 -129 53z m63 -47 c5 -7 24 -50
42 -96 18 -46 34 -81 37 -79 2 3 0 14 -6 25 -17 31 -13 37 9 17 11 -10 20 -24
20 -30 0 -7 14 -30 31 -51 29 -36 31 -44 26 -96 -8 -89 28 -153 162 -292 118
-124 178 -202 237 -311 24 -45 74 -108 138 -175 54 -58 122 -133 149 -167 43
-56 55 -65 105 -79 80 -23 131 -51 172 -93 28 -30 31 -31 17 -8 -13 19 -17 43
-15 78 l3 50 34 -26 c48 -35 122 -35 173 0 l36 25 6 -28 c7 -30 -6 -84 -26
-110 -6 -10 4 -1 23 19 39 41 91 70 169 93 66 19 67 20 104 71 17 22 82 96
147 165 75 80 127 146 147 185 48 96 122 193 240 317 131 138 158 186 154 275
-2 57 1 68 32 115 49 74 69 98 62 76 -3 -10 -9 -26 -12 -35 -3 -10 2 -7 10 7
8 14 23 48 32 75 18 54 42 95 54 95 12 0 21 -31 15 -50 -3 -10 -14 -20 -24
-23 -13 -3 -21 -22 -31 -68 -11 -53 -19 -70 -51 -99 -22 -20 -41 -48 -44 -65
-6 -27 -5 -28 6 -10 6 11 29 38 50 60 27 28 42 57 53 99 16 64 36 96 36 57 0
-72 -27 -177 -77 -294 -119 -284 -272 -550 -388 -677 -17 -19 -39 -55 -48 -80
-37 -100 -165 -297 -268 -413 -27 -30 -49 -64 -49 -76 0 -28 -47 -176 -77
-239 -31 -65 -60 -82 -150 -83 -86 -2 -41 -16 56 -18 l64 -1 -7 -72 c-11 -106
-24 -156 -56 -215 -30 -57 -29 -65 6 -32 l22 21 7 -41 c9 -56 -4 -185 -26
-248 -19 -55 -12 -71 11 -28 7 14 17 25 21 25 19 0 42 -153 46 -310 6 -191
-16 -394 -69 -645 -34 -160 -36 -200 -29 -565 4 -185 -9 -281 -73 -539 -53
-214 -58 -290 -26 -465 11 -60 20 -126 20 -145 0 -47 -29 -93 -82 -131 -76
-55 -73 -67 -76 310 -6 614 -7 674 -2 790 2 63 0 302 -4 530 -4 228 -4 497 -1
597 l7 183 26 13 c25 11 138 165 128 174 -2 2 -21 -17 -42 -43 -83 -100 -100
-114 -139 -114 -39 0 -51 9 -134 109 -24 29 -46 50 -49 47 -3 -4 4 -16 15 -29
11 -12 33 -44 48 -71 16 -27 43 -57 61 -68 l32 -19 6 -117 c4 -64 3 -499 0
-967 -4 -467 -6 -961 -4 -1097 2 -222 1 -248 -14 -254 -24 -9 -91 39 -123 87
l-27 41 19 122 c11 66 21 170 23 229 3 101 0 120 -42 291 -71 283 -79 356 -71
656 l6 255 -35 175 c-55 277 -71 413 -71 615 0 137 4 200 18 265 10 47 20 87
23 89 2 2 13 -8 25 -23 12 -15 23 -26 24 -24 2 2 -5 28 -15 58 -15 41 -19 84
-20 169 0 108 1 113 18 99 36 -31 40 -27 17 15 -29 51 -51 136 -60 230 l-7 67
64 1 c96 2 141 16 55 18 -37 0 -81 7 -96 15 -35 18 -84 124 -115 248 -19 72
-30 96 -68 140 -112 132 -222 302 -259 398 -11 29 -42 78 -68 109 -107 123
-255 381 -357 621 -61 142 -93 255 -94 330 0 42 25 2 39 -61 9 -44 20 -64 52
-95 23 -21 45 -48 49 -59 8 -18 9 -18 9 4 1 16 -14 39 -42 66 -33 31 -46 52
-50 83 -10 60 -24 92 -42 92 -11 0 -15 10 -15 35 0 36 10 44 28 23z m1361
-781 c52 -34 71 -79 71 -165 0 -83 -22 -207 -46 -257 -9 -19 -33 -54 -54 -77
-34 -39 -42 -43 -85 -43 -43 0 -51 4 -82 40 -50 58 -69 101 -87 194 -38 197
-6 296 103 332 47 15 139 3 180 -24z"/>
<path d="M6405 9315 c77 -38 85 -40 85 -24 0 12 -72 44 -120 53 -28 5 -20 -1
35 -29z"/>
<path d="M6687 9336 c-27 -8 -58 -23 -70 -35 -29 -28 -9 -27 44 4 24 14 52 25
61 25 9 0 20 5 23 10 8 12 2 12 -58 -4z"/>
<path d="M6466 8741 c-9 -10 -26 -43 -37 -72 -12 -30 -28 -62 -36 -71 -9 -10
-11 -18 -5 -18 15 0 50 52 67 101 9 24 23 51 32 61 9 10 12 18 6 18 -5 0 -18
-8 -27 -19z"/>
<path d="M6601 8744 c7 -9 29 -48 49 -87 19 -39 41 -73 49 -76 10 -2 8 5 -6
25 -11 16 -26 48 -33 71 -7 23 -22 52 -32 63 -22 24 -47 28 -27 4z"/>
<path d="M6401 9871 c-9 -6 8 -9 48 -10 34 0 61 4 61 9 0 12 -90 13 -109 1z"/>
<path d="M6577 9873 c-4 -3 -6 -27 -6 -52 1 -25 3 -38 6 -29 3 12 17 18 45 20
53 4 64 28 14 28 -20 0 -36 5 -36 10 0 10 30 14 80 11 20 -2 22 0 10 8 -17 12
-103 15 -113 4z"/>
<path d="M6422 9828 c7 -20 68 -23 68 -4 0 12 -10 16 -36 16 -24 0 -34 -4 -32
-12z"/>
<path d="M6528 9699 c15 -6 30 -5 40 1 13 7 8 9 -23 9 -35 0 -37 -1 -17 -10z"/>
<path d="M5758 6414 l-28 -15 0 -498 0 -499 81 35 c139 60 276 56 389 -10 19
-11 63 -46 96 -77 84 -78 140 -104 234 -108 105 -5 165 19 260 104 160 145
323 171 509 84 35 -17 65 -30 67 -30 2 0 4 225 4 500 l0 499 -30 16 c-16 8
-34 15 -40 15 -7 0 -10 -142 -10 -450 0 -247 -2 -450 -5 -450 -2 0 -30 7 -62
15 -81 21 -197 19 -274 -5 -75 -23 -131 -57 -214 -130 -137 -122 -241 -121
-382 3 -80 70 -137 104 -212 127 -76 24 -193 26 -271 5 -30 -8 -56 -15 -57
-15 -2 0 -3 203 -3 450 0 485 2 464 -52 434z"/>
<path d="M8431 10542 c-21 -10 -38 -28 -44 -45 -17 -52 -7 -57 103 -57 l100 0
0 26 c0 38 -18 64 -55 80 -45 18 -63 18 -104 -4z"/>
<path d="M8482 10122 c-65 -24 -89 -45 -103 -93 -10 -32 -9 -42 7 -70 35 -59
75 -74 194 -74 90 0 111 3 148 23 102 55 106 158 7 209 -47 25 -189 28 -253 5z"/>
<path d="M4500 9535 c0 -56 47 -95 115 -95 48 0 98 47 93 87 l-3 28 -102 3
-103 3 0 -26z"/>
<path d="M8561 8375 c-36 -12 -61 -24 -55 -27 20 -12 116 -40 120 -35 3 3 4
23 2 44 l-3 40 -64 -22z"/>
<path d="M4313 8395 c-29 -20 -29 -55 -2 -111 56 -116 294 -130 373 -21 15 20
21 44 21 85 l0 57 -185 3 c-155 2 -189 0 -207 -13z"/>
<path d="M4460 7870 l0 -48 65 21 c36 12 65 24 65 27 0 3 -29 15 -65 27 l-65
21 0 -48z"/>
<path d="M4320 7387 c-34 -17 -37 -60 -8 -116 32 -62 80 -85 183 -89 68 -3 87
0 124 20 64 33 85 67 86 136 l0 57 -180 2 c-130 2 -187 -1 -205 -10z"/>
<path d="M8558 7142 c-27 -8 -48 -18 -48 -22 0 -6 97 -40 113 -40 4 0 7 18 7
40 0 45 -2 46 -72 22z"/>
<path d="M4460 6596 c0 -25 4 -46 8 -46 4 0 37 10 72 22 l64 21 -49 17 c-104
35 -95 37 -95 -14z"/>
<path d="M8558 6411 c-31 -9 -59 -18 -62 -21 -3 -3 22 -16 55 -29 33 -13 62
-21 64 -19 9 9 17 88 9 87 -5 -1 -35 -9 -66 -18z"/>
<path d="M8320 6043 c-11 -15 -19 -33 -18 -41 2 -8 37 -27 80 -43 82 -30 88
-28 88 26 0 37 -10 55 -41 70 -44 23 -84 19 -109 -12z"/>
<path d="M8562 6004 c-35 -14 -67 -57 -59 -78 3 -8 45 -27 92 -43 85 -27 87
-27 101 -8 52 70 -47 166 -134 129z"/>
<path d="M5071 5348 c-72 -20 -178 -115 -207 -184 -38 -91 3 -174 86 -174 97
0 245 131 264 235 9 48 -16 99 -59 119 -37 18 -37 18 -84 4z"/>
<path d="M7672 5089 l-53 -30 17 -27 c9 -15 61 -87 115 -159 66 -88 105 -133
118 -133 27 0 71 39 87 76 30 72 7 148 -68 230 -74 81 -131 92 -216 43z"/>
<path d="M5919 4777 c-45 -30 -75 -86 -95 -175 -24 -110 -3 -189 60 -219 46
-21 98 -11 130 27 57 68 92 235 66 314 -13 42 -59 76 -101 76 -14 0 -41 -10
-60 -23z"/>
<path d="M7070 4601 c0 -64 2 -72 18 -67 9 3 29 8 45 12 l27 6 -37 52 c-20 28
-40 55 -45 61 -4 5 -8 -24 -8 -64z"/>
<path d="M3204 11586 c-3 -9 -4 -114 -2 -234 4 -181 8 -225 23 -262 10 -25 63
-112 118 -195 94 -141 177 -294 177 -328 0 -8 8 -25 18 -37 14 -17 24 -21 41
-15 l23 7 -4 256 c-5 332 -9 343 -196 543 -101 109 -139 167 -150 230 -8 46
-36 66 -48 35z m164 -354 c108 -135 129 -184 142 -331 5 -58 8 -107 5 -109 -3
-4 -112 159 -172 258 -32 54 -60 147 -68 230 -4 41 -5 73 -2 70 2 -3 45 -56
95 -118z"/>
<path d="M9847 11594 c-4 -4 -7 -21 -7 -38 0 -50 -57 -136 -169 -258 -111
-121 -152 -190 -171 -287 -5 -30 -10 -149 -10 -266 0 -174 3 -215 15 -225 24
-20 51 -3 64 43 23 79 79 182 183 337 62 93 110 176 119 205 10 37 14 108 14
270 0 190 -2 220 -15 223 -9 1 -19 0 -23 -4z m-35 -357 c-16 -98 -45 -162
-143 -312 l-91 -140 5 105 c6 135 26 194 87 272 27 35 71 91 97 126 44 57 48
60 51 37 2 -14 -1 -54 -6 -88z"/>
<path d="M6373 3593 c-3 -7 6 -60 18 -118 27 -126 26 -125 154 -125 124 0 129
4 150 97 10 43 19 95 19 117 l1 38 -169 2 c-122 1 -170 -2 -173 -11z"/>
<path d="M3102 9478 c-14 -18 -67 -232 -92 -368 -42 -238 -71 -552 -52 -564
17 -10 20 2 37 140 26 212 117 628 144 657 4 4 17 -11 30 -32 l22 -40 -20 -68
c-43 -144 -93 -507 -77 -550 13 -34 33 7 39 80 6 78 47 271 79 377 l21 65 22
-65 22 -65 -33 -133 c-39 -154 -55 -297 -33 -290 7 2 19 32 26 69 23 117 56
231 63 217 22 -41 18 -296 -6 -417 -6 -29 -5 -33 12 -29 24 4 50 102 64 249
24 236 -36 505 -152 679 -64 95 -92 117 -116 88z"/>
<path d="M2829 7795 c-76 -41 -87 -161 -20 -218 43 -36 92 -42 145 -18 53 23
76 61 76 127 0 41 -5 51 -39 85 -34 35 -44 39 -87 39 -27 -1 -61 -7 -75 -15z
m107 -80 c18 -19 23 -31 19 -48 -8 -27 -33 -47 -57 -47 -24 0 -58 35 -58 60 0
24 34 60 55 60 9 0 27 -11 41 -25z"/>
<path d="M9922 9456 c-67 -77 -134 -217 -174 -364 -26 -98 -36 -348 -18 -459
18 -111 38 -173 57 -173 12 0 14 7 9 33 -11 57 -19 333 -11 383 l8 49 19 -60
c11 -33 27 -100 37 -150 12 -62 22 -90 31 -90 11 0 14 13 12 50 -4 62 -36 224
-61 303 -18 59 -18 60 3 128 12 39 25 64 29 57 14 -22 76 -279 87 -363 17
-124 25 -156 35 -150 27 14 -5 317 -54 512 l-28 112 23 40 23 40 11 -29 c42
-107 110 -427 138 -645 11 -85 22 -135 30 -138 40 -13 -20 494 -93 786 -45
177 -57 191 -113 128z"/>
<path d="M10116 7789 c-82 -65 -72 -185 19 -229 147 -71 270 137 136 227 -45
30 -118 31 -155 2z m112 -65 c42 -29 18 -104 -34 -104 -29 0 -64 43 -57 70 6
21 39 50 58 50 6 0 21 -7 33 -16z"/>
<path d="M3641 5026 c-6 -7 -21 -49 -33 -92 -29 -107 -33 -384 -5 -483 24 -86
58 -170 98 -239 34 -57 198 -232 219 -232 30 0 14 32 -48 95 -77 79 -118 147
-156 255 l-26 75 73 -76 c109 -115 146 -145 153 -125 4 11 -12 37 -48 79 -65
75 -135 167 -172 225 -21 34 -26 53 -24 88 l3 45 60 -77 c94 -120 234 -279
250 -282 26 -6 16 25 -22 70 -47 56 -188 245 -242 326 -40 59 -42 67 -36 109
l6 44 59 -88 c32 -48 89 -126 127 -173 85 -106 277 -300 297 -300 34 0 25 25
-31 88 -144 163 -274 355 -360 532 -31 63 -63 123 -71 133 -18 20 -55 22 -71
3z"/>
<path d="M4773 3810 c-123 -62 -81 -250 56 -250 59 0 108 29 128 77 49 117
-71 230 -184 173z m99 -77 c27 -24 23 -69 -8 -90 -23 -15 -29 -15 -52 -2 -37
21 -45 52 -21 83 23 30 54 33 81 9z"/>
<path d="M9380 5024 c-8 -8 -37 -63 -65 -122 -88 -182 -216 -374 -357 -533
-57 -65 -72 -99 -44 -99 42 0 300 283 416 457 70 104 79 108 80 35 0 -34 -100
-182 -252 -373 -68 -87 -79 -109 -55 -109 16 0 125 122 236 262 l76 97 3 -46
c3 -42 -2 -54 -52 -128 -30 -45 -87 -118 -126 -163 -38 -44 -70 -85 -70 -91 0
-34 33 -12 126 84 l104 108 -16 -54 c-28 -95 -85 -190 -163 -272 -55 -57 -71
-81 -63 -89 8 -8 25 0 64 30 131 101 234 277 272 464 32 156 10 459 -39 534
-18 28 -56 32 -75 8z"/>
<path d="M8216 3820 c-62 -19 -104 -89 -90 -152 15 -72 62 -108 140 -108 41 0
51 5 85 39 34 34 39 44 39 85 0 64 -23 104 -73 127 -46 20 -58 21 -101 9z m76
-82 c30 -24 31 -56 4 -83 -14 -14 -32 -25 -41 -25 -21 0 -55 36 -55 60 0 25
34 60 58 60 10 0 25 -6 34 -12z"/>
</g>
</svg>
